<svg width="124" height="124" viewBox="0 0 124 124" fill="none" xmlns="http://www.w3.org/2000/svg">
<rect width="124" height="124" rx="11" fill="black"/>
<path d="M43.88 46.9149H65.885C69.145 52.844 74.524 65.834 69.96 70.3617C67.6755 72.6281 64.084 72.7706 60.18 71.887V89.766L49.585 79.2553L54.8604 70.1908C50.6705 68.5293 46.6251 66.2744 43.88 64.7021C38.664 61.7146 41.7067 51.5992 43.88 46.9149Z" fill="black"/>
<path d="M83 33.9787L65.885 17V46.9149M65.885 46.9149H43.88C41.7067 51.5992 38.664 61.7146 43.88 64.7021C46.6251 66.2744 50.6705 68.5293 54.8604 70.1908M65.885 46.9149C69.145 52.844 74.524 65.834 69.96 70.3617C67.6755 72.6281 64.084 72.7706 60.18 71.887M60.18 71.887V107V89.766L49.585 79.2553L54.8604 70.1908M60.18 71.887C58.4396 71.4931 56.637 70.8953 54.8604 70.1908" stroke="white"/>
</svg>
